<svg width="268.1" height="65" viewBox="0 0 268.1 65" xmlns="http://www.w3.org/2000/svg"><g id="svgGroup" stroke-linecap="round" fill-rule="evenodd" font-size="9pt" stroke="#ffffff" stroke-width="0.25mm" fill="#ffffff" style="stroke:#ffffff;stroke-width:0.25mm;fill:#ffffff"><path d="M 69.2 65 L 60.8 65 L 85.5 0 L 93.9 0 L 118.8 65 L 110.2 65 L 88.5 6.2 L 90.9 6.2 L 69.2 65 Z M 150.6 65 L 142.2 65 L 118.3 0 L 126.9 0 L 147.6 57 L 145.2 57 L 165.9 0 L 174.3 0 L 150.6 65 Z M 0 0 L 21.1 0 A 62.752 62.752 0 0 1 28.007 0.359 Q 33.394 0.957 37.55 2.55 Q 44.2 5.1 48.2 9.6 Q 52.2 14.1 54 19.9 A 40.844 40.844 0 0 1 55.784 30.988 A 46.25 46.25 0 0 1 55.8 32.2 Q 55.8 38.7 53.9 44.6 Q 52 50.5 47.85 55.1 A 26.659 26.659 0 0 1 40.986 60.504 A 33.717 33.717 0 0 1 37.1 62.35 A 34.394 34.394 0 0 1 30.305 64.251 Q 27.019 64.836 23.249 64.964 A 63.307 63.307 0 0 1 21.1 65 L 0 65 L 0 0 Z M 212.3 0 L 233.4 0 A 62.752 62.752 0 0 1 240.307 0.359 Q 245.694 0.957 249.85 2.55 Q 256.5 5.1 260.5 9.6 Q 264.5 14.1 266.3 19.9 A 40.844 40.844 0 0 1 268.084 30.988 A 46.25 46.25 0 0 1 268.1 32.2 Q 268.1 38.7 266.2 44.6 Q 264.3 50.5 260.15 55.1 A 26.659 26.659 0 0 1 253.286 60.504 A 33.717 33.717 0 0 1 249.4 62.35 A 34.394 34.394 0 0 1 242.605 64.251 Q 239.319 64.836 235.549 64.964 A 63.307 63.307 0 0 1 233.4 65 L 212.3 65 L 212.3 0 Z M 8 7.5 L 8 57.5 L 21.1 57.5 A 46.737 46.737 0 0 0 26.531 57.204 Q 29.252 56.885 31.544 56.223 A 22.582 22.582 0 0 0 34.15 55.3 A 24.388 24.388 0 0 0 38.506 52.919 A 18.658 18.658 0 0 0 42.3 49.45 Q 45.3 45.8 46.55 41.3 Q 47.8 36.8 47.8 32.2 Q 47.8 27.6 46.55 23.2 Q 45.3 18.8 42.3 15.25 A 18.542 18.542 0 0 0 37.845 11.462 A 24.83 24.83 0 0 0 34.15 9.6 A 25.406 25.406 0 0 0 29.512 8.241 Q 27.186 7.778 24.482 7.604 A 52.86 52.86 0 0 0 21.1 7.5 L 8 7.5 Z M 220.3 7.5 L 220.3 57.5 L 233.4 57.5 A 46.737 46.737 0 0 0 238.831 57.204 Q 241.552 56.885 243.844 56.223 A 22.582 22.582 0 0 0 246.45 55.3 A 24.388 24.388 0 0 0 250.806 52.919 A 18.658 18.658 0 0 0 254.6 49.45 Q 257.6 45.8 258.85 41.3 Q 260.1 36.8 260.1 32.2 Q 260.1 27.6 258.85 23.2 Q 257.6 18.8 254.6 15.25 A 18.542 18.542 0 0 0 250.145 11.462 A 24.83 24.83 0 0 0 246.45 9.6 A 25.406 25.406 0 0 0 241.812 8.241 Q 239.486 7.778 236.782 7.604 A 52.86 52.86 0 0 0 233.4 7.5 L 220.3 7.5 Z M 186.3 65 L 186.3 0 L 194.3 0 L 194.3 65 L 186.3 65 Z" vector-effect="non-scaling-stroke"/></g></svg>